%TF.GenerationSoftware,KiCad,Pcbnew,10.0.0*%
%TF.CreationDate,2026-05-13T20:07:24-04:00*%
%TF.ProjectId,memory_game,6d656d6f-7279-45f6-9761-6d652e6b6963,rev?*%
%TF.SameCoordinates,Original*%
%TF.FileFunction,Copper,L2,Bot*%
%TF.FilePolarity,Positive*%
%FSLAX46Y46*%
G04 Gerber Fmt 4.6, Leading zero omitted, Abs format (unit mm)*
G04 Created by KiCad (PCBNEW 10.0.0) date 2026-05-13 20:07:24*
%MOMM*%
%LPD*%
G01*
G04 APERTURE LIST*
%TA.AperFunction,ComponentPad*%
%ADD10C,1.600000*%
%TD*%
%TA.AperFunction,ComponentPad*%
%ADD11R,1.700000X1.700000*%
%TD*%
%TA.AperFunction,ComponentPad*%
%ADD12C,1.700000*%
%TD*%
%TA.AperFunction,ComponentPad*%
%ADD13R,1.800000X1.800000*%
%TD*%
%TA.AperFunction,ComponentPad*%
%ADD14C,1.800000*%
%TD*%
%TA.AperFunction,ComponentPad*%
%ADD15C,2.000000*%
%TD*%
%TA.AperFunction,Profile*%
%ADD16C,0.050000*%
%TD*%
G04 APERTURE END LIST*
D10*
%TO.P,R2,1*%
%TO.N,/P26*%
X131270000Y-97310000D03*
%TO.P,R2,2*%
%TO.N,Net-(D2-A)*%
X123650000Y-97310000D03*
%TD*%
D11*
%TO.P,J2,1,Pin_1_1*%
%TO.N,GND*%
X166960000Y-73310000D03*
D12*
%TO.P,J2,2,Pin_2_2*%
%TO.N,/P23*%
X166960000Y-75850000D03*
%TO.P,J2,3,Pin_3_3*%
%TO.N,/P22*%
X166960000Y-78390000D03*
%TO.P,J2,4,Pin_4_4*%
%TO.N,/TX*%
X166960000Y-80930000D03*
%TO.P,J2,5,Pin_5_5*%
%TO.N,/RX*%
X166960000Y-83470000D03*
%TO.P,J2,6,Pin_6_6*%
%TO.N,/P21*%
X166960000Y-86010000D03*
%TO.P,J2,7,Pin_7_7*%
%TO.N,GND*%
X166960000Y-88550000D03*
%TO.P,J2,8,Pin_8_8*%
%TO.N,/P19*%
X166960000Y-91090000D03*
%TO.P,J2,9,Pin_9_9*%
%TO.N,/P18*%
X166960000Y-93630000D03*
%TO.P,J2,10,Pin_10_10*%
%TO.N,/P5*%
X166960000Y-96170000D03*
%TO.P,J2,11,Pin_11_11*%
%TO.N,/P17*%
X166960000Y-98710000D03*
%TO.P,J2,12,Pin_12_12*%
%TO.N,/P16*%
X166960000Y-101250000D03*
%TO.P,J2,13,Pin_13_13*%
%TO.N,/P4*%
X166960000Y-103790000D03*
%TO.P,J2,14,Pin_14_14*%
%TO.N,/P0*%
X166960000Y-106330000D03*
%TO.P,J2,15,Pin_15_15*%
%TO.N,/P2*%
X166960000Y-108870000D03*
%TO.P,J2,16,Pin_16_16*%
%TO.N,/P15*%
X166960000Y-111410000D03*
%TO.P,J2,17,Pin_17_17*%
%TO.N,/SD1*%
X166960000Y-113950000D03*
%TO.P,J2,18,Pin_18_18*%
%TO.N,/SD0*%
X166960000Y-116490000D03*
%TO.P,J2,19,Pin_19_19*%
%TO.N,/CLK*%
X166960000Y-119030000D03*
%TD*%
D13*
%TO.P,D3,1,K_1*%
%TO.N,GND*%
X113920000Y-113810000D03*
D14*
%TO.P,D3,2,A_2*%
%TO.N,Net-(D3-A)*%
X116460000Y-113810000D03*
%TD*%
D13*
%TO.P,D1,1,K_1*%
%TO.N,GND*%
X113920000Y-82310000D03*
D14*
%TO.P,D1,2,A_2*%
%TO.N,Net-(D1-A)*%
X116460000Y-82310000D03*
%TD*%
D10*
%TO.P,R3,1*%
%TO.N,/P27*%
X130770000Y-113810000D03*
%TO.P,R3,2*%
%TO.N,Net-(D3-A)*%
X123150000Y-113810000D03*
%TD*%
D15*
%TO.P,SW1,1,1_1*%
%TO.N,/P23*%
X176410000Y-76990000D03*
X182910000Y-76990000D03*
%TO.P,SW1,2,2_2*%
%TO.N,GND*%
X176410000Y-81490000D03*
X182910000Y-81490000D03*
%TD*%
D11*
%TO.P,J1,1,Pin_1_1*%
%TO.N,/3V3*%
X141560000Y-73330000D03*
D12*
%TO.P,J1,2,Pin_2_2*%
%TO.N,/EN*%
X141560000Y-75870000D03*
%TO.P,J1,3,Pin_3_3*%
%TO.N,/SVP*%
X141560000Y-78410000D03*
%TO.P,J1,4,Pin_4_4*%
%TO.N,/SVN*%
X141560000Y-80950000D03*
%TO.P,J1,5,Pin_5_5*%
%TO.N,/P34*%
X141560000Y-83490000D03*
%TO.P,J1,6,Pin_6_6*%
%TO.N,/P35*%
X141560000Y-86030000D03*
%TO.P,J1,7,Pin_7_7*%
%TO.N,/P32*%
X141560000Y-88570000D03*
%TO.P,J1,8,Pin_8_8*%
%TO.N,/P33*%
X141560000Y-91110000D03*
%TO.P,J1,9,Pin_9_9*%
%TO.N,/P25*%
X141560000Y-93650000D03*
%TO.P,J1,10,Pin_10_10*%
%TO.N,/P26*%
X141560000Y-96190000D03*
%TO.P,J1,11,Pin_11_11*%
%TO.N,/P27*%
X141560000Y-98730000D03*
%TO.P,J1,12,Pin_12_12*%
%TO.N,/P14*%
X141560000Y-101270000D03*
%TO.P,J1,13,Pin_13_13*%
%TO.N,/P12*%
X141560000Y-103810000D03*
%TO.P,J1,14,Pin_14_14*%
%TO.N,GND*%
X141560000Y-106350000D03*
%TO.P,J1,15,Pin_15_15*%
%TO.N,/P13*%
X141560000Y-108890000D03*
%TO.P,J1,16,Pin_16_16*%
%TO.N,/SD2*%
X141560000Y-111430000D03*
%TO.P,J1,17,Pin_17_17*%
%TO.N,/SD3*%
X141560000Y-113970000D03*
%TO.P,J1,18,Pin_18_18*%
%TO.N,GND*%
X141560000Y-116510000D03*
%TO.P,J1,19,Pin_19_19*%
%TO.N,/5V*%
X141560000Y-119050000D03*
%TD*%
D15*
%TO.P,SW3,1,1_1*%
%TO.N,/P21*%
X176460000Y-111560000D03*
X182960000Y-111560000D03*
%TO.P,SW3,2,2_2*%
%TO.N,GND*%
X176460000Y-116060000D03*
X182960000Y-116060000D03*
%TD*%
D13*
%TO.P,D2,1,K_1*%
%TO.N,GND*%
X113920000Y-97310000D03*
D14*
%TO.P,D2,2,A_2*%
%TO.N,Net-(D2-A)*%
X116460000Y-97310000D03*
%TD*%
D15*
%TO.P,SW2,1,1_1*%
%TO.N,/P22*%
X176410000Y-93790000D03*
X182910000Y-93790000D03*
%TO.P,SW2,2,2_2*%
%TO.N,GND*%
X176410000Y-98290000D03*
X182910000Y-98290000D03*
%TD*%
D10*
%TO.P,R1,1*%
%TO.N,/P25*%
X131080000Y-82310000D03*
%TO.P,R1,2*%
%TO.N,Net-(D1-A)*%
X123460000Y-82310000D03*
%TD*%
D16*
X106680000Y-66040000D02*
X189230000Y-66040000D01*
X189230000Y-128270000D01*
X106680000Y-128270000D01*
X106680000Y-66040000D01*
M02*
