%TF.GenerationSoftware,KiCad,Pcbnew,10.0.0*%
%TF.CreationDate,2026-05-13T20:07:25-04:00*%
%TF.ProjectId,memory_game,6d656d6f-7279-45f6-9761-6d652e6b6963,rev?*%
%TF.SameCoordinates,Original*%
%TF.FileFunction,Legend,Top*%
%TF.FilePolarity,Positive*%
%FSLAX46Y46*%
G04 Gerber Fmt 4.6, Leading zero omitted, Abs format (unit mm)*
G04 Created by KiCad (PCBNEW 10.0.0) date 2026-05-13 20:07:25*
%MOMM*%
%LPD*%
G01*
G04 APERTURE LIST*
%ADD10C,0.100000*%
%ADD11C,0.150000*%
%ADD12C,0.120000*%
%TA.AperFunction,Profile*%
%ADD13C,0.050000*%
%TD*%
G04 APERTURE END LIST*
D10*
X112571884Y-85597466D02*
X113333789Y-85597466D01*
X112825884Y-100583466D02*
X113587789Y-100583466D01*
X113079884Y-117093466D02*
X113841789Y-117093466D01*
X116635884Y-85597466D02*
X117397789Y-85597466D01*
X117016836Y-85978419D02*
X117016836Y-85216514D01*
X116635884Y-117093466D02*
X117397789Y-117093466D01*
X117016836Y-117474419D02*
X117016836Y-116712514D01*
X116889884Y-100583466D02*
X117651789Y-100583466D01*
X117270836Y-100964419D02*
X117270836Y-100202514D01*
D11*
X183324666Y-121358819D02*
X182991333Y-120882628D01*
X182753238Y-121358819D02*
X182753238Y-120358819D01*
X182753238Y-120358819D02*
X183134190Y-120358819D01*
X183134190Y-120358819D02*
X183229428Y-120406438D01*
X183229428Y-120406438D02*
X183277047Y-120454057D01*
X183277047Y-120454057D02*
X183324666Y-120549295D01*
X183324666Y-120549295D02*
X183324666Y-120692152D01*
X183324666Y-120692152D02*
X183277047Y-120787390D01*
X183277047Y-120787390D02*
X183229428Y-120835009D01*
X183229428Y-120835009D02*
X183134190Y-120882628D01*
X183134190Y-120882628D02*
X182753238Y-120882628D01*
X183753238Y-120835009D02*
X184086571Y-120835009D01*
X184229428Y-121358819D02*
X183753238Y-121358819D01*
X183753238Y-121358819D02*
X183753238Y-120358819D01*
X183753238Y-120358819D02*
X184229428Y-120358819D01*
X184991333Y-120835009D02*
X184658000Y-120835009D01*
X184658000Y-121358819D02*
X184658000Y-120358819D01*
X184658000Y-120358819D02*
X185134190Y-120358819D01*
X185658000Y-120358819D02*
X185658000Y-120596914D01*
X185419905Y-120501676D02*
X185658000Y-120596914D01*
X185658000Y-120596914D02*
X185896095Y-120501676D01*
X185515143Y-120787390D02*
X185658000Y-120596914D01*
X185658000Y-120596914D02*
X185800857Y-120787390D01*
X186419905Y-120358819D02*
X186419905Y-120596914D01*
X186181810Y-120501676D02*
X186419905Y-120596914D01*
X186419905Y-120596914D02*
X186658000Y-120501676D01*
X186277048Y-120787390D02*
X186419905Y-120596914D01*
X186419905Y-120596914D02*
X186562762Y-120787390D01*
X109918666Y-121358819D02*
X109585333Y-120882628D01*
X109347238Y-121358819D02*
X109347238Y-120358819D01*
X109347238Y-120358819D02*
X109728190Y-120358819D01*
X109728190Y-120358819D02*
X109823428Y-120406438D01*
X109823428Y-120406438D02*
X109871047Y-120454057D01*
X109871047Y-120454057D02*
X109918666Y-120549295D01*
X109918666Y-120549295D02*
X109918666Y-120692152D01*
X109918666Y-120692152D02*
X109871047Y-120787390D01*
X109871047Y-120787390D02*
X109823428Y-120835009D01*
X109823428Y-120835009D02*
X109728190Y-120882628D01*
X109728190Y-120882628D02*
X109347238Y-120882628D01*
X110347238Y-120835009D02*
X110680571Y-120835009D01*
X110823428Y-121358819D02*
X110347238Y-121358819D01*
X110347238Y-121358819D02*
X110347238Y-120358819D01*
X110347238Y-120358819D02*
X110823428Y-120358819D01*
X111585333Y-120835009D02*
X111252000Y-120835009D01*
X111252000Y-121358819D02*
X111252000Y-120358819D01*
X111252000Y-120358819D02*
X111728190Y-120358819D01*
X112252000Y-120358819D02*
X112252000Y-120596914D01*
X112013905Y-120501676D02*
X112252000Y-120596914D01*
X112252000Y-120596914D02*
X112490095Y-120501676D01*
X112109143Y-120787390D02*
X112252000Y-120596914D01*
X112252000Y-120596914D02*
X112394857Y-120787390D01*
X113013905Y-120358819D02*
X113013905Y-120596914D01*
X112775810Y-120501676D02*
X113013905Y-120596914D01*
X113013905Y-120596914D02*
X113252000Y-120501676D01*
X112871048Y-120787390D02*
X113013905Y-120596914D01*
X113013905Y-120596914D02*
X113156762Y-120787390D01*
X183324666Y-68018819D02*
X182991333Y-67542628D01*
X182753238Y-68018819D02*
X182753238Y-67018819D01*
X182753238Y-67018819D02*
X183134190Y-67018819D01*
X183134190Y-67018819D02*
X183229428Y-67066438D01*
X183229428Y-67066438D02*
X183277047Y-67114057D01*
X183277047Y-67114057D02*
X183324666Y-67209295D01*
X183324666Y-67209295D02*
X183324666Y-67352152D01*
X183324666Y-67352152D02*
X183277047Y-67447390D01*
X183277047Y-67447390D02*
X183229428Y-67495009D01*
X183229428Y-67495009D02*
X183134190Y-67542628D01*
X183134190Y-67542628D02*
X182753238Y-67542628D01*
X183753238Y-67495009D02*
X184086571Y-67495009D01*
X184229428Y-68018819D02*
X183753238Y-68018819D01*
X183753238Y-68018819D02*
X183753238Y-67018819D01*
X183753238Y-67018819D02*
X184229428Y-67018819D01*
X184991333Y-67495009D02*
X184658000Y-67495009D01*
X184658000Y-68018819D02*
X184658000Y-67018819D01*
X184658000Y-67018819D02*
X185134190Y-67018819D01*
X185658000Y-67018819D02*
X185658000Y-67256914D01*
X185419905Y-67161676D02*
X185658000Y-67256914D01*
X185658000Y-67256914D02*
X185896095Y-67161676D01*
X185515143Y-67447390D02*
X185658000Y-67256914D01*
X185658000Y-67256914D02*
X185800857Y-67447390D01*
X186419905Y-67018819D02*
X186419905Y-67256914D01*
X186181810Y-67161676D02*
X186419905Y-67256914D01*
X186419905Y-67256914D02*
X186658000Y-67161676D01*
X186277048Y-67447390D02*
X186419905Y-67256914D01*
X186419905Y-67256914D02*
X186562762Y-67447390D01*
X109918666Y-68018819D02*
X109585333Y-67542628D01*
X109347238Y-68018819D02*
X109347238Y-67018819D01*
X109347238Y-67018819D02*
X109728190Y-67018819D01*
X109728190Y-67018819D02*
X109823428Y-67066438D01*
X109823428Y-67066438D02*
X109871047Y-67114057D01*
X109871047Y-67114057D02*
X109918666Y-67209295D01*
X109918666Y-67209295D02*
X109918666Y-67352152D01*
X109918666Y-67352152D02*
X109871047Y-67447390D01*
X109871047Y-67447390D02*
X109823428Y-67495009D01*
X109823428Y-67495009D02*
X109728190Y-67542628D01*
X109728190Y-67542628D02*
X109347238Y-67542628D01*
X110347238Y-67495009D02*
X110680571Y-67495009D01*
X110823428Y-68018819D02*
X110347238Y-68018819D01*
X110347238Y-68018819D02*
X110347238Y-67018819D01*
X110347238Y-67018819D02*
X110823428Y-67018819D01*
X111585333Y-67495009D02*
X111252000Y-67495009D01*
X111252000Y-68018819D02*
X111252000Y-67018819D01*
X111252000Y-67018819D02*
X111728190Y-67018819D01*
X112252000Y-67018819D02*
X112252000Y-67256914D01*
X112013905Y-67161676D02*
X112252000Y-67256914D01*
X112252000Y-67256914D02*
X112490095Y-67161676D01*
X112109143Y-67447390D02*
X112252000Y-67256914D01*
X112252000Y-67256914D02*
X112394857Y-67447390D01*
X113013905Y-67018819D02*
X113013905Y-67256914D01*
X112775810Y-67161676D02*
X113013905Y-67256914D01*
X113013905Y-67256914D02*
X113252000Y-67161676D01*
X112871048Y-67447390D02*
X113013905Y-67256914D01*
X113013905Y-67256914D02*
X113156762Y-67447390D01*
X127293333Y-100134819D02*
X126960000Y-99658628D01*
X126721905Y-100134819D02*
X126721905Y-99134819D01*
X126721905Y-99134819D02*
X127102857Y-99134819D01*
X127102857Y-99134819D02*
X127198095Y-99182438D01*
X127198095Y-99182438D02*
X127245714Y-99230057D01*
X127245714Y-99230057D02*
X127293333Y-99325295D01*
X127293333Y-99325295D02*
X127293333Y-99468152D01*
X127293333Y-99468152D02*
X127245714Y-99563390D01*
X127245714Y-99563390D02*
X127198095Y-99611009D01*
X127198095Y-99611009D02*
X127102857Y-99658628D01*
X127102857Y-99658628D02*
X126721905Y-99658628D01*
X127674286Y-99230057D02*
X127721905Y-99182438D01*
X127721905Y-99182438D02*
X127817143Y-99134819D01*
X127817143Y-99134819D02*
X128055238Y-99134819D01*
X128055238Y-99134819D02*
X128150476Y-99182438D01*
X128150476Y-99182438D02*
X128198095Y-99230057D01*
X128198095Y-99230057D02*
X128245714Y-99325295D01*
X128245714Y-99325295D02*
X128245714Y-99420533D01*
X128245714Y-99420533D02*
X128198095Y-99563390D01*
X128198095Y-99563390D02*
X127626667Y-100134819D01*
X127626667Y-100134819D02*
X128245714Y-100134819D01*
X166626666Y-69994819D02*
X166626666Y-70709104D01*
X166626666Y-70709104D02*
X166579047Y-70851961D01*
X166579047Y-70851961D02*
X166483809Y-70947200D01*
X166483809Y-70947200D02*
X166340952Y-70994819D01*
X166340952Y-70994819D02*
X166245714Y-70994819D01*
X167055238Y-70090057D02*
X167102857Y-70042438D01*
X167102857Y-70042438D02*
X167198095Y-69994819D01*
X167198095Y-69994819D02*
X167436190Y-69994819D01*
X167436190Y-69994819D02*
X167531428Y-70042438D01*
X167531428Y-70042438D02*
X167579047Y-70090057D01*
X167579047Y-70090057D02*
X167626666Y-70185295D01*
X167626666Y-70185295D02*
X167626666Y-70280533D01*
X167626666Y-70280533D02*
X167579047Y-70423390D01*
X167579047Y-70423390D02*
X167007619Y-70994819D01*
X167007619Y-70994819D02*
X167626666Y-70994819D01*
X114451905Y-110304819D02*
X114451905Y-109304819D01*
X114451905Y-109304819D02*
X114690000Y-109304819D01*
X114690000Y-109304819D02*
X114832857Y-109352438D01*
X114832857Y-109352438D02*
X114928095Y-109447676D01*
X114928095Y-109447676D02*
X114975714Y-109542914D01*
X114975714Y-109542914D02*
X115023333Y-109733390D01*
X115023333Y-109733390D02*
X115023333Y-109876247D01*
X115023333Y-109876247D02*
X114975714Y-110066723D01*
X114975714Y-110066723D02*
X114928095Y-110161961D01*
X114928095Y-110161961D02*
X114832857Y-110257200D01*
X114832857Y-110257200D02*
X114690000Y-110304819D01*
X114690000Y-110304819D02*
X114451905Y-110304819D01*
X115356667Y-109304819D02*
X115975714Y-109304819D01*
X115975714Y-109304819D02*
X115642381Y-109685771D01*
X115642381Y-109685771D02*
X115785238Y-109685771D01*
X115785238Y-109685771D02*
X115880476Y-109733390D01*
X115880476Y-109733390D02*
X115928095Y-109781009D01*
X115928095Y-109781009D02*
X115975714Y-109876247D01*
X115975714Y-109876247D02*
X115975714Y-110114342D01*
X115975714Y-110114342D02*
X115928095Y-110209580D01*
X115928095Y-110209580D02*
X115880476Y-110257200D01*
X115880476Y-110257200D02*
X115785238Y-110304819D01*
X115785238Y-110304819D02*
X115499524Y-110304819D01*
X115499524Y-110304819D02*
X115404286Y-110257200D01*
X115404286Y-110257200D02*
X115356667Y-110209580D01*
X114451905Y-78804819D02*
X114451905Y-77804819D01*
X114451905Y-77804819D02*
X114690000Y-77804819D01*
X114690000Y-77804819D02*
X114832857Y-77852438D01*
X114832857Y-77852438D02*
X114928095Y-77947676D01*
X114928095Y-77947676D02*
X114975714Y-78042914D01*
X114975714Y-78042914D02*
X115023333Y-78233390D01*
X115023333Y-78233390D02*
X115023333Y-78376247D01*
X115023333Y-78376247D02*
X114975714Y-78566723D01*
X114975714Y-78566723D02*
X114928095Y-78661961D01*
X114928095Y-78661961D02*
X114832857Y-78757200D01*
X114832857Y-78757200D02*
X114690000Y-78804819D01*
X114690000Y-78804819D02*
X114451905Y-78804819D01*
X115975714Y-78804819D02*
X115404286Y-78804819D01*
X115690000Y-78804819D02*
X115690000Y-77804819D01*
X115690000Y-77804819D02*
X115594762Y-77947676D01*
X115594762Y-77947676D02*
X115499524Y-78042914D01*
X115499524Y-78042914D02*
X115404286Y-78090533D01*
X126793333Y-116634819D02*
X126460000Y-116158628D01*
X126221905Y-116634819D02*
X126221905Y-115634819D01*
X126221905Y-115634819D02*
X126602857Y-115634819D01*
X126602857Y-115634819D02*
X126698095Y-115682438D01*
X126698095Y-115682438D02*
X126745714Y-115730057D01*
X126745714Y-115730057D02*
X126793333Y-115825295D01*
X126793333Y-115825295D02*
X126793333Y-115968152D01*
X126793333Y-115968152D02*
X126745714Y-116063390D01*
X126745714Y-116063390D02*
X126698095Y-116111009D01*
X126698095Y-116111009D02*
X126602857Y-116158628D01*
X126602857Y-116158628D02*
X126221905Y-116158628D01*
X127126667Y-115634819D02*
X127745714Y-115634819D01*
X127745714Y-115634819D02*
X127412381Y-116015771D01*
X127412381Y-116015771D02*
X127555238Y-116015771D01*
X127555238Y-116015771D02*
X127650476Y-116063390D01*
X127650476Y-116063390D02*
X127698095Y-116111009D01*
X127698095Y-116111009D02*
X127745714Y-116206247D01*
X127745714Y-116206247D02*
X127745714Y-116444342D01*
X127745714Y-116444342D02*
X127698095Y-116539580D01*
X127698095Y-116539580D02*
X127650476Y-116587200D01*
X127650476Y-116587200D02*
X127555238Y-116634819D01*
X127555238Y-116634819D02*
X127269524Y-116634819D01*
X127269524Y-116634819D02*
X127174286Y-116587200D01*
X127174286Y-116587200D02*
X127126667Y-116539580D01*
X178326667Y-75083200D02*
X178469524Y-75130819D01*
X178469524Y-75130819D02*
X178707619Y-75130819D01*
X178707619Y-75130819D02*
X178802857Y-75083200D01*
X178802857Y-75083200D02*
X178850476Y-75035580D01*
X178850476Y-75035580D02*
X178898095Y-74940342D01*
X178898095Y-74940342D02*
X178898095Y-74845104D01*
X178898095Y-74845104D02*
X178850476Y-74749866D01*
X178850476Y-74749866D02*
X178802857Y-74702247D01*
X178802857Y-74702247D02*
X178707619Y-74654628D01*
X178707619Y-74654628D02*
X178517143Y-74607009D01*
X178517143Y-74607009D02*
X178421905Y-74559390D01*
X178421905Y-74559390D02*
X178374286Y-74511771D01*
X178374286Y-74511771D02*
X178326667Y-74416533D01*
X178326667Y-74416533D02*
X178326667Y-74321295D01*
X178326667Y-74321295D02*
X178374286Y-74226057D01*
X178374286Y-74226057D02*
X178421905Y-74178438D01*
X178421905Y-74178438D02*
X178517143Y-74130819D01*
X178517143Y-74130819D02*
X178755238Y-74130819D01*
X178755238Y-74130819D02*
X178898095Y-74178438D01*
X179231429Y-74130819D02*
X179469524Y-75130819D01*
X179469524Y-75130819D02*
X179660000Y-74416533D01*
X179660000Y-74416533D02*
X179850476Y-75130819D01*
X179850476Y-75130819D02*
X180088572Y-74130819D01*
X180993333Y-75130819D02*
X180421905Y-75130819D01*
X180707619Y-75130819D02*
X180707619Y-74130819D01*
X180707619Y-74130819D02*
X180612381Y-74273676D01*
X180612381Y-74273676D02*
X180517143Y-74368914D01*
X180517143Y-74368914D02*
X180421905Y-74416533D01*
X141226666Y-70014819D02*
X141226666Y-70729104D01*
X141226666Y-70729104D02*
X141179047Y-70871961D01*
X141179047Y-70871961D02*
X141083809Y-70967200D01*
X141083809Y-70967200D02*
X140940952Y-71014819D01*
X140940952Y-71014819D02*
X140845714Y-71014819D01*
X142226666Y-71014819D02*
X141655238Y-71014819D01*
X141940952Y-71014819D02*
X141940952Y-70014819D01*
X141940952Y-70014819D02*
X141845714Y-70157676D01*
X141845714Y-70157676D02*
X141750476Y-70252914D01*
X141750476Y-70252914D02*
X141655238Y-70300533D01*
X178376667Y-109967200D02*
X178519524Y-110014819D01*
X178519524Y-110014819D02*
X178757619Y-110014819D01*
X178757619Y-110014819D02*
X178852857Y-109967200D01*
X178852857Y-109967200D02*
X178900476Y-109919580D01*
X178900476Y-109919580D02*
X178948095Y-109824342D01*
X178948095Y-109824342D02*
X178948095Y-109729104D01*
X178948095Y-109729104D02*
X178900476Y-109633866D01*
X178900476Y-109633866D02*
X178852857Y-109586247D01*
X178852857Y-109586247D02*
X178757619Y-109538628D01*
X178757619Y-109538628D02*
X178567143Y-109491009D01*
X178567143Y-109491009D02*
X178471905Y-109443390D01*
X178471905Y-109443390D02*
X178424286Y-109395771D01*
X178424286Y-109395771D02*
X178376667Y-109300533D01*
X178376667Y-109300533D02*
X178376667Y-109205295D01*
X178376667Y-109205295D02*
X178424286Y-109110057D01*
X178424286Y-109110057D02*
X178471905Y-109062438D01*
X178471905Y-109062438D02*
X178567143Y-109014819D01*
X178567143Y-109014819D02*
X178805238Y-109014819D01*
X178805238Y-109014819D02*
X178948095Y-109062438D01*
X179281429Y-109014819D02*
X179519524Y-110014819D01*
X179519524Y-110014819D02*
X179710000Y-109300533D01*
X179710000Y-109300533D02*
X179900476Y-110014819D01*
X179900476Y-110014819D02*
X180138572Y-109014819D01*
X180424286Y-109014819D02*
X181043333Y-109014819D01*
X181043333Y-109014819D02*
X180710000Y-109395771D01*
X180710000Y-109395771D02*
X180852857Y-109395771D01*
X180852857Y-109395771D02*
X180948095Y-109443390D01*
X180948095Y-109443390D02*
X180995714Y-109491009D01*
X180995714Y-109491009D02*
X181043333Y-109586247D01*
X181043333Y-109586247D02*
X181043333Y-109824342D01*
X181043333Y-109824342D02*
X180995714Y-109919580D01*
X180995714Y-109919580D02*
X180948095Y-109967200D01*
X180948095Y-109967200D02*
X180852857Y-110014819D01*
X180852857Y-110014819D02*
X180567143Y-110014819D01*
X180567143Y-110014819D02*
X180471905Y-109967200D01*
X180471905Y-109967200D02*
X180424286Y-109919580D01*
X114451905Y-93804819D02*
X114451905Y-92804819D01*
X114451905Y-92804819D02*
X114690000Y-92804819D01*
X114690000Y-92804819D02*
X114832857Y-92852438D01*
X114832857Y-92852438D02*
X114928095Y-92947676D01*
X114928095Y-92947676D02*
X114975714Y-93042914D01*
X114975714Y-93042914D02*
X115023333Y-93233390D01*
X115023333Y-93233390D02*
X115023333Y-93376247D01*
X115023333Y-93376247D02*
X114975714Y-93566723D01*
X114975714Y-93566723D02*
X114928095Y-93661961D01*
X114928095Y-93661961D02*
X114832857Y-93757200D01*
X114832857Y-93757200D02*
X114690000Y-93804819D01*
X114690000Y-93804819D02*
X114451905Y-93804819D01*
X115404286Y-92900057D02*
X115451905Y-92852438D01*
X115451905Y-92852438D02*
X115547143Y-92804819D01*
X115547143Y-92804819D02*
X115785238Y-92804819D01*
X115785238Y-92804819D02*
X115880476Y-92852438D01*
X115880476Y-92852438D02*
X115928095Y-92900057D01*
X115928095Y-92900057D02*
X115975714Y-92995295D01*
X115975714Y-92995295D02*
X115975714Y-93090533D01*
X115975714Y-93090533D02*
X115928095Y-93233390D01*
X115928095Y-93233390D02*
X115356667Y-93804819D01*
X115356667Y-93804819D02*
X115975714Y-93804819D01*
X178326667Y-92197200D02*
X178469524Y-92244819D01*
X178469524Y-92244819D02*
X178707619Y-92244819D01*
X178707619Y-92244819D02*
X178802857Y-92197200D01*
X178802857Y-92197200D02*
X178850476Y-92149580D01*
X178850476Y-92149580D02*
X178898095Y-92054342D01*
X178898095Y-92054342D02*
X178898095Y-91959104D01*
X178898095Y-91959104D02*
X178850476Y-91863866D01*
X178850476Y-91863866D02*
X178802857Y-91816247D01*
X178802857Y-91816247D02*
X178707619Y-91768628D01*
X178707619Y-91768628D02*
X178517143Y-91721009D01*
X178517143Y-91721009D02*
X178421905Y-91673390D01*
X178421905Y-91673390D02*
X178374286Y-91625771D01*
X178374286Y-91625771D02*
X178326667Y-91530533D01*
X178326667Y-91530533D02*
X178326667Y-91435295D01*
X178326667Y-91435295D02*
X178374286Y-91340057D01*
X178374286Y-91340057D02*
X178421905Y-91292438D01*
X178421905Y-91292438D02*
X178517143Y-91244819D01*
X178517143Y-91244819D02*
X178755238Y-91244819D01*
X178755238Y-91244819D02*
X178898095Y-91292438D01*
X179231429Y-91244819D02*
X179469524Y-92244819D01*
X179469524Y-92244819D02*
X179660000Y-91530533D01*
X179660000Y-91530533D02*
X179850476Y-92244819D01*
X179850476Y-92244819D02*
X180088572Y-91244819D01*
X180421905Y-91340057D02*
X180469524Y-91292438D01*
X180469524Y-91292438D02*
X180564762Y-91244819D01*
X180564762Y-91244819D02*
X180802857Y-91244819D01*
X180802857Y-91244819D02*
X180898095Y-91292438D01*
X180898095Y-91292438D02*
X180945714Y-91340057D01*
X180945714Y-91340057D02*
X180993333Y-91435295D01*
X180993333Y-91435295D02*
X180993333Y-91530533D01*
X180993333Y-91530533D02*
X180945714Y-91673390D01*
X180945714Y-91673390D02*
X180374286Y-92244819D01*
X180374286Y-92244819D02*
X180993333Y-92244819D01*
X127103333Y-85134819D02*
X126770000Y-84658628D01*
X126531905Y-85134819D02*
X126531905Y-84134819D01*
X126531905Y-84134819D02*
X126912857Y-84134819D01*
X126912857Y-84134819D02*
X127008095Y-84182438D01*
X127008095Y-84182438D02*
X127055714Y-84230057D01*
X127055714Y-84230057D02*
X127103333Y-84325295D01*
X127103333Y-84325295D02*
X127103333Y-84468152D01*
X127103333Y-84468152D02*
X127055714Y-84563390D01*
X127055714Y-84563390D02*
X127008095Y-84611009D01*
X127008095Y-84611009D02*
X126912857Y-84658628D01*
X126912857Y-84658628D02*
X126531905Y-84658628D01*
X128055714Y-85134819D02*
X127484286Y-85134819D01*
X127770000Y-85134819D02*
X127770000Y-84134819D01*
X127770000Y-84134819D02*
X127674762Y-84277676D01*
X127674762Y-84277676D02*
X127579524Y-84372914D01*
X127579524Y-84372914D02*
X127484286Y-84420533D01*
%TO.C,R2*%
D12*
X124190000Y-95940000D02*
X124190000Y-96270000D01*
X124190000Y-98680000D02*
X124190000Y-98350000D01*
X130730000Y-95940000D02*
X124190000Y-95940000D01*
X130730000Y-96270000D02*
X130730000Y-95940000D01*
X130730000Y-98350000D02*
X130730000Y-98680000D01*
X130730000Y-98680000D02*
X124190000Y-98680000D01*
%TO.C,J2*%
X165630000Y-74580000D02*
X165630000Y-120360000D01*
X165630000Y-74580000D02*
X168290000Y-74580000D01*
X165630000Y-120360000D02*
X168290000Y-120360000D01*
X166960000Y-71980000D02*
X168290000Y-71980000D01*
X168290000Y-71980000D02*
X168290000Y-73310000D01*
X168290000Y-74580000D02*
X168290000Y-120360000D01*
%TO.C,D3*%
X112630000Y-112265000D02*
X112630000Y-115355000D01*
X112630000Y-112265170D02*
G75*
G02*
X118180000Y-113810000I2560000J-1544830D01*
G01*
X118180000Y-113810000D02*
G75*
G02*
X112630000Y-115354830I-2990000J0D01*
G01*
X117690000Y-113810000D02*
G75*
G02*
X112690000Y-113810000I-2500000J0D01*
G01*
X112690000Y-113810000D02*
G75*
G02*
X117690000Y-113810000I2500000J0D01*
G01*
%TO.C,D1*%
X112630000Y-80765000D02*
X112630000Y-83855000D01*
X112630000Y-80765170D02*
G75*
G02*
X118180000Y-82310000I2560000J-1544830D01*
G01*
X118180000Y-82310000D02*
G75*
G02*
X112630000Y-83854830I-2990000J0D01*
G01*
X117690000Y-82310000D02*
G75*
G02*
X112690000Y-82310000I-2500000J0D01*
G01*
X112690000Y-82310000D02*
G75*
G02*
X117690000Y-82310000I2500000J0D01*
G01*
%TO.C,R3*%
X123690000Y-112440000D02*
X123690000Y-112770000D01*
X123690000Y-115180000D02*
X123690000Y-114850000D01*
X130230000Y-112440000D02*
X123690000Y-112440000D01*
X130230000Y-112770000D02*
X130230000Y-112440000D01*
X130230000Y-114850000D02*
X130230000Y-115180000D01*
X130230000Y-115180000D02*
X123690000Y-115180000D01*
%TO.C,SW1*%
X176160000Y-78490000D02*
X176160000Y-79990000D01*
X177410000Y-82490000D02*
X181910000Y-82490000D01*
X181910000Y-75990000D02*
X177410000Y-75990000D01*
X183160000Y-79990000D02*
X183160000Y-78490000D01*
%TO.C,J1*%
X140230000Y-74600000D02*
X140230000Y-120380000D01*
X140230000Y-74600000D02*
X142890000Y-74600000D01*
X140230000Y-120380000D02*
X142890000Y-120380000D01*
X141560000Y-72000000D02*
X142890000Y-72000000D01*
X142890000Y-72000000D02*
X142890000Y-73330000D01*
X142890000Y-74600000D02*
X142890000Y-120380000D01*
%TO.C,SW3*%
X176210000Y-113060000D02*
X176210000Y-114560000D01*
X177460000Y-117060000D02*
X181960000Y-117060000D01*
X181960000Y-110560000D02*
X177460000Y-110560000D01*
X183210000Y-114560000D02*
X183210000Y-113060000D01*
%TO.C,D2*%
X112630000Y-95765000D02*
X112630000Y-98855000D01*
X112630000Y-95765170D02*
G75*
G02*
X118180000Y-97310000I2560000J-1544830D01*
G01*
X118180000Y-97310000D02*
G75*
G02*
X112630000Y-98854830I-2990000J0D01*
G01*
X117690000Y-97310000D02*
G75*
G02*
X112690000Y-97310000I-2500000J0D01*
G01*
X112690000Y-97310000D02*
G75*
G02*
X117690000Y-97310000I2500000J0D01*
G01*
%TO.C,SW2*%
X176160000Y-95290000D02*
X176160000Y-96790000D01*
X177410000Y-99290000D02*
X181910000Y-99290000D01*
X181910000Y-92790000D02*
X177410000Y-92790000D01*
X183160000Y-96790000D02*
X183160000Y-95290000D01*
%TO.C,R1*%
X124000000Y-80940000D02*
X124000000Y-81270000D01*
X124000000Y-83680000D02*
X124000000Y-83350000D01*
X130540000Y-80940000D02*
X124000000Y-80940000D01*
X130540000Y-81270000D02*
X130540000Y-80940000D01*
X130540000Y-83350000D02*
X130540000Y-83680000D01*
X130540000Y-83680000D02*
X124000000Y-83680000D01*
%TD*%
D13*
X106680000Y-66040000D02*
X189230000Y-66040000D01*
X189230000Y-128270000D01*
X106680000Y-128270000D01*
X106680000Y-66040000D01*
M02*
