%TF.GenerationSoftware,KiCad,Pcbnew,10.0.0*%
%TF.CreationDate,2026-05-13T20:08:07-04:00*%
%TF.ProjectId,memory_game,6d656d6f-7279-45f6-9761-6d652e6b6963,rev?*%
%TF.SameCoordinates,Original*%
%TF.FileFunction,Drillmap*%
%TF.FilePolarity,Positive*%
%FSLAX45Y45*%
G04 Gerber Fmt 4.5, Leading zero omitted, Abs format (unit mm)*
G04 Created by KiCad (PCBNEW 10.0.0) date 2026-05-13 20:08:07*
%MOMM*%
%LPD*%
G01*
G04 APERTURE LIST*
%ADD10C,0.050000*%
%ADD11C,0.200000*%
%ADD12C,0.320000*%
G04 APERTURE END LIST*
D10*
X10668000Y-6604000D02*
X18923000Y-6604000D01*
X18923000Y-12827000D01*
X10668000Y-12827000D01*
X10668000Y-6604000D01*
D11*
D12*
X10965200Y-6901200D02*
X11285200Y-7221200D01*
X11285200Y-6901200D02*
X10965200Y-7221200D01*
X10965200Y-12235200D02*
X11285200Y-12555200D01*
X11285200Y-12235200D02*
X10965200Y-12555200D01*
X18305800Y-6901200D02*
X18625800Y-7221200D01*
X18625800Y-6901200D02*
X18305800Y-7221200D01*
X18305800Y-12235200D02*
X18625800Y-12555200D01*
X18625800Y-12235200D02*
X18305800Y-12555200D01*
D11*
X10926277Y-13140984D02*
X10926277Y-12940984D01*
X10926277Y-12940984D02*
X10973896Y-12940984D01*
X10973896Y-12940984D02*
X11002467Y-12950508D01*
X11002467Y-12950508D02*
X11021515Y-12969555D01*
X11021515Y-12969555D02*
X11031039Y-12988603D01*
X11031039Y-12988603D02*
X11040563Y-13026698D01*
X11040563Y-13026698D02*
X11040563Y-13055269D01*
X11040563Y-13055269D02*
X11031039Y-13093365D01*
X11031039Y-13093365D02*
X11021515Y-13112412D01*
X11021515Y-13112412D02*
X11002467Y-13131460D01*
X11002467Y-13131460D02*
X10973896Y-13140984D01*
X10973896Y-13140984D02*
X10926277Y-13140984D01*
X11126277Y-13140984D02*
X11126277Y-13007650D01*
X11126277Y-13045746D02*
X11135801Y-13026698D01*
X11135801Y-13026698D02*
X11145324Y-13017174D01*
X11145324Y-13017174D02*
X11164372Y-13007650D01*
X11164372Y-13007650D02*
X11183420Y-13007650D01*
X11250086Y-13140984D02*
X11250086Y-13007650D01*
X11250086Y-12940984D02*
X11240562Y-12950508D01*
X11240562Y-12950508D02*
X11250086Y-12960031D01*
X11250086Y-12960031D02*
X11259610Y-12950508D01*
X11259610Y-12950508D02*
X11250086Y-12940984D01*
X11250086Y-12940984D02*
X11250086Y-12960031D01*
X11373896Y-13140984D02*
X11354848Y-13131460D01*
X11354848Y-13131460D02*
X11345324Y-13112412D01*
X11345324Y-13112412D02*
X11345324Y-12940984D01*
X11478658Y-13140984D02*
X11459610Y-13131460D01*
X11459610Y-13131460D02*
X11450086Y-13112412D01*
X11450086Y-13112412D02*
X11450086Y-12940984D01*
X11707229Y-13140984D02*
X11707229Y-12940984D01*
X11707229Y-12940984D02*
X11773896Y-13083841D01*
X11773896Y-13083841D02*
X11840562Y-12940984D01*
X11840562Y-12940984D02*
X11840562Y-13140984D01*
X12021515Y-13140984D02*
X12021515Y-13036222D01*
X12021515Y-13036222D02*
X12011991Y-13017174D01*
X12011991Y-13017174D02*
X11992943Y-13007650D01*
X11992943Y-13007650D02*
X11954848Y-13007650D01*
X11954848Y-13007650D02*
X11935801Y-13017174D01*
X12021515Y-13131460D02*
X12002467Y-13140984D01*
X12002467Y-13140984D02*
X11954848Y-13140984D01*
X11954848Y-13140984D02*
X11935801Y-13131460D01*
X11935801Y-13131460D02*
X11926277Y-13112412D01*
X11926277Y-13112412D02*
X11926277Y-13093365D01*
X11926277Y-13093365D02*
X11935801Y-13074317D01*
X11935801Y-13074317D02*
X11954848Y-13064793D01*
X11954848Y-13064793D02*
X12002467Y-13064793D01*
X12002467Y-13064793D02*
X12021515Y-13055269D01*
X12116753Y-13007650D02*
X12116753Y-13207650D01*
X12116753Y-13017174D02*
X12135801Y-13007650D01*
X12135801Y-13007650D02*
X12173896Y-13007650D01*
X12173896Y-13007650D02*
X12192943Y-13017174D01*
X12192943Y-13017174D02*
X12202467Y-13026698D01*
X12202467Y-13026698D02*
X12211991Y-13045746D01*
X12211991Y-13045746D02*
X12211991Y-13102888D01*
X12211991Y-13102888D02*
X12202467Y-13121936D01*
X12202467Y-13121936D02*
X12192943Y-13131460D01*
X12192943Y-13131460D02*
X12173896Y-13140984D01*
X12173896Y-13140984D02*
X12135801Y-13140984D01*
X12135801Y-13140984D02*
X12116753Y-13131460D01*
X12297705Y-13121936D02*
X12307229Y-13131460D01*
X12307229Y-13131460D02*
X12297705Y-13140984D01*
X12297705Y-13140984D02*
X12288182Y-13131460D01*
X12288182Y-13131460D02*
X12297705Y-13121936D01*
X12297705Y-13121936D02*
X12297705Y-13140984D01*
X12297705Y-13017174D02*
X12307229Y-13026698D01*
X12307229Y-13026698D02*
X12297705Y-13036222D01*
X12297705Y-13036222D02*
X12288182Y-13026698D01*
X12288182Y-13026698D02*
X12297705Y-13017174D01*
X12297705Y-13017174D02*
X12297705Y-13036222D01*
X10465500Y-13369500D02*
X10665500Y-13569500D01*
X10665500Y-13369500D02*
X10465500Y-13569500D01*
X10907229Y-13360984D02*
X11031039Y-13360984D01*
X11031039Y-13360984D02*
X10964372Y-13437174D01*
X10964372Y-13437174D02*
X10992944Y-13437174D01*
X10992944Y-13437174D02*
X11011991Y-13446698D01*
X11011991Y-13446698D02*
X11021515Y-13456222D01*
X11021515Y-13456222D02*
X11031039Y-13475269D01*
X11031039Y-13475269D02*
X11031039Y-13522888D01*
X11031039Y-13522888D02*
X11021515Y-13541936D01*
X11021515Y-13541936D02*
X11011991Y-13551460D01*
X11011991Y-13551460D02*
X10992944Y-13560984D01*
X10992944Y-13560984D02*
X10935801Y-13560984D01*
X10935801Y-13560984D02*
X10916753Y-13551460D01*
X10916753Y-13551460D02*
X10907229Y-13541936D01*
X11116753Y-13541936D02*
X11126277Y-13551460D01*
X11126277Y-13551460D02*
X11116753Y-13560984D01*
X11116753Y-13560984D02*
X11107229Y-13551460D01*
X11107229Y-13551460D02*
X11116753Y-13541936D01*
X11116753Y-13541936D02*
X11116753Y-13560984D01*
X11202467Y-13380031D02*
X11211991Y-13370508D01*
X11211991Y-13370508D02*
X11231039Y-13360984D01*
X11231039Y-13360984D02*
X11278658Y-13360984D01*
X11278658Y-13360984D02*
X11297705Y-13370508D01*
X11297705Y-13370508D02*
X11307229Y-13380031D01*
X11307229Y-13380031D02*
X11316753Y-13399079D01*
X11316753Y-13399079D02*
X11316753Y-13418127D01*
X11316753Y-13418127D02*
X11307229Y-13446698D01*
X11307229Y-13446698D02*
X11192943Y-13560984D01*
X11192943Y-13560984D02*
X11316753Y-13560984D01*
X11440562Y-13360984D02*
X11459610Y-13360984D01*
X11459610Y-13360984D02*
X11478658Y-13370508D01*
X11478658Y-13370508D02*
X11488182Y-13380031D01*
X11488182Y-13380031D02*
X11497705Y-13399079D01*
X11497705Y-13399079D02*
X11507229Y-13437174D01*
X11507229Y-13437174D02*
X11507229Y-13484793D01*
X11507229Y-13484793D02*
X11497705Y-13522888D01*
X11497705Y-13522888D02*
X11488182Y-13541936D01*
X11488182Y-13541936D02*
X11478658Y-13551460D01*
X11478658Y-13551460D02*
X11459610Y-13560984D01*
X11459610Y-13560984D02*
X11440562Y-13560984D01*
X11440562Y-13560984D02*
X11421515Y-13551460D01*
X11421515Y-13551460D02*
X11411991Y-13541936D01*
X11411991Y-13541936D02*
X11402467Y-13522888D01*
X11402467Y-13522888D02*
X11392943Y-13484793D01*
X11392943Y-13484793D02*
X11392943Y-13437174D01*
X11392943Y-13437174D02*
X11402467Y-13399079D01*
X11402467Y-13399079D02*
X11411991Y-13380031D01*
X11411991Y-13380031D02*
X11421515Y-13370508D01*
X11421515Y-13370508D02*
X11440562Y-13360984D01*
X11631039Y-13360984D02*
X11650086Y-13360984D01*
X11650086Y-13360984D02*
X11669134Y-13370508D01*
X11669134Y-13370508D02*
X11678658Y-13380031D01*
X11678658Y-13380031D02*
X11688182Y-13399079D01*
X11688182Y-13399079D02*
X11697705Y-13437174D01*
X11697705Y-13437174D02*
X11697705Y-13484793D01*
X11697705Y-13484793D02*
X11688182Y-13522888D01*
X11688182Y-13522888D02*
X11678658Y-13541936D01*
X11678658Y-13541936D02*
X11669134Y-13551460D01*
X11669134Y-13551460D02*
X11650086Y-13560984D01*
X11650086Y-13560984D02*
X11631039Y-13560984D01*
X11631039Y-13560984D02*
X11611991Y-13551460D01*
X11611991Y-13551460D02*
X11602467Y-13541936D01*
X11602467Y-13541936D02*
X11592943Y-13522888D01*
X11592943Y-13522888D02*
X11583420Y-13484793D01*
X11583420Y-13484793D02*
X11583420Y-13437174D01*
X11583420Y-13437174D02*
X11592943Y-13399079D01*
X11592943Y-13399079D02*
X11602467Y-13380031D01*
X11602467Y-13380031D02*
X11611991Y-13370508D01*
X11611991Y-13370508D02*
X11631039Y-13360984D01*
X11783420Y-13560984D02*
X11783420Y-13427650D01*
X11783420Y-13446698D02*
X11792943Y-13437174D01*
X11792943Y-13437174D02*
X11811991Y-13427650D01*
X11811991Y-13427650D02*
X11840563Y-13427650D01*
X11840563Y-13427650D02*
X11859610Y-13437174D01*
X11859610Y-13437174D02*
X11869134Y-13456222D01*
X11869134Y-13456222D02*
X11869134Y-13560984D01*
X11869134Y-13456222D02*
X11878658Y-13437174D01*
X11878658Y-13437174D02*
X11897705Y-13427650D01*
X11897705Y-13427650D02*
X11926277Y-13427650D01*
X11926277Y-13427650D02*
X11945324Y-13437174D01*
X11945324Y-13437174D02*
X11954848Y-13456222D01*
X11954848Y-13456222D02*
X11954848Y-13560984D01*
X12050086Y-13560984D02*
X12050086Y-13427650D01*
X12050086Y-13446698D02*
X12059610Y-13437174D01*
X12059610Y-13437174D02*
X12078658Y-13427650D01*
X12078658Y-13427650D02*
X12107229Y-13427650D01*
X12107229Y-13427650D02*
X12126277Y-13437174D01*
X12126277Y-13437174D02*
X12135801Y-13456222D01*
X12135801Y-13456222D02*
X12135801Y-13560984D01*
X12135801Y-13456222D02*
X12145324Y-13437174D01*
X12145324Y-13437174D02*
X12164372Y-13427650D01*
X12164372Y-13427650D02*
X12192943Y-13427650D01*
X12192943Y-13427650D02*
X12211991Y-13437174D01*
X12211991Y-13437174D02*
X12221515Y-13456222D01*
X12221515Y-13456222D02*
X12221515Y-13560984D01*
X12611991Y-13351460D02*
X12440563Y-13608603D01*
X12869134Y-13360984D02*
X12888182Y-13360984D01*
X12888182Y-13360984D02*
X12907229Y-13370508D01*
X12907229Y-13370508D02*
X12916753Y-13380031D01*
X12916753Y-13380031D02*
X12926277Y-13399079D01*
X12926277Y-13399079D02*
X12935801Y-13437174D01*
X12935801Y-13437174D02*
X12935801Y-13484793D01*
X12935801Y-13484793D02*
X12926277Y-13522888D01*
X12926277Y-13522888D02*
X12916753Y-13541936D01*
X12916753Y-13541936D02*
X12907229Y-13551460D01*
X12907229Y-13551460D02*
X12888182Y-13560984D01*
X12888182Y-13560984D02*
X12869134Y-13560984D01*
X12869134Y-13560984D02*
X12850086Y-13551460D01*
X12850086Y-13551460D02*
X12840563Y-13541936D01*
X12840563Y-13541936D02*
X12831039Y-13522888D01*
X12831039Y-13522888D02*
X12821515Y-13484793D01*
X12821515Y-13484793D02*
X12821515Y-13437174D01*
X12821515Y-13437174D02*
X12831039Y-13399079D01*
X12831039Y-13399079D02*
X12840563Y-13380031D01*
X12840563Y-13380031D02*
X12850086Y-13370508D01*
X12850086Y-13370508D02*
X12869134Y-13360984D01*
X13021515Y-13541936D02*
X13031039Y-13551460D01*
X13031039Y-13551460D02*
X13021515Y-13560984D01*
X13021515Y-13560984D02*
X13011991Y-13551460D01*
X13011991Y-13551460D02*
X13021515Y-13541936D01*
X13021515Y-13541936D02*
X13021515Y-13560984D01*
X13221515Y-13560984D02*
X13107229Y-13560984D01*
X13164372Y-13560984D02*
X13164372Y-13360984D01*
X13164372Y-13360984D02*
X13145325Y-13389555D01*
X13145325Y-13389555D02*
X13126277Y-13408603D01*
X13126277Y-13408603D02*
X13107229Y-13418127D01*
X13297706Y-13380031D02*
X13307229Y-13370508D01*
X13307229Y-13370508D02*
X13326277Y-13360984D01*
X13326277Y-13360984D02*
X13373896Y-13360984D01*
X13373896Y-13360984D02*
X13392944Y-13370508D01*
X13392944Y-13370508D02*
X13402467Y-13380031D01*
X13402467Y-13380031D02*
X13411991Y-13399079D01*
X13411991Y-13399079D02*
X13411991Y-13418127D01*
X13411991Y-13418127D02*
X13402467Y-13446698D01*
X13402467Y-13446698D02*
X13288182Y-13560984D01*
X13288182Y-13560984D02*
X13411991Y-13560984D01*
X13583420Y-13360984D02*
X13545325Y-13360984D01*
X13545325Y-13360984D02*
X13526277Y-13370508D01*
X13526277Y-13370508D02*
X13516753Y-13380031D01*
X13516753Y-13380031D02*
X13497706Y-13408603D01*
X13497706Y-13408603D02*
X13488182Y-13446698D01*
X13488182Y-13446698D02*
X13488182Y-13522888D01*
X13488182Y-13522888D02*
X13497706Y-13541936D01*
X13497706Y-13541936D02*
X13507229Y-13551460D01*
X13507229Y-13551460D02*
X13526277Y-13560984D01*
X13526277Y-13560984D02*
X13564372Y-13560984D01*
X13564372Y-13560984D02*
X13583420Y-13551460D01*
X13583420Y-13551460D02*
X13592944Y-13541936D01*
X13592944Y-13541936D02*
X13602467Y-13522888D01*
X13602467Y-13522888D02*
X13602467Y-13475269D01*
X13602467Y-13475269D02*
X13592944Y-13456222D01*
X13592944Y-13456222D02*
X13583420Y-13446698D01*
X13583420Y-13446698D02*
X13564372Y-13437174D01*
X13564372Y-13437174D02*
X13526277Y-13437174D01*
X13526277Y-13437174D02*
X13507229Y-13446698D01*
X13507229Y-13446698D02*
X13497706Y-13456222D01*
X13497706Y-13456222D02*
X13488182Y-13475269D01*
X13726277Y-13360984D02*
X13745325Y-13360984D01*
X13745325Y-13360984D02*
X13764372Y-13370508D01*
X13764372Y-13370508D02*
X13773896Y-13380031D01*
X13773896Y-13380031D02*
X13783420Y-13399079D01*
X13783420Y-13399079D02*
X13792944Y-13437174D01*
X13792944Y-13437174D02*
X13792944Y-13484793D01*
X13792944Y-13484793D02*
X13783420Y-13522888D01*
X13783420Y-13522888D02*
X13773896Y-13541936D01*
X13773896Y-13541936D02*
X13764372Y-13551460D01*
X13764372Y-13551460D02*
X13745325Y-13560984D01*
X13745325Y-13560984D02*
X13726277Y-13560984D01*
X13726277Y-13560984D02*
X13707229Y-13551460D01*
X13707229Y-13551460D02*
X13697706Y-13541936D01*
X13697706Y-13541936D02*
X13688182Y-13522888D01*
X13688182Y-13522888D02*
X13678658Y-13484793D01*
X13678658Y-13484793D02*
X13678658Y-13437174D01*
X13678658Y-13437174D02*
X13688182Y-13399079D01*
X13688182Y-13399079D02*
X13697706Y-13380031D01*
X13697706Y-13380031D02*
X13707229Y-13370508D01*
X13707229Y-13370508D02*
X13726277Y-13360984D01*
X13869134Y-13360984D02*
X13869134Y-13399079D01*
X13945325Y-13360984D02*
X13945325Y-13399079D01*
X14240563Y-13637174D02*
X14231039Y-13627650D01*
X14231039Y-13627650D02*
X14211991Y-13599079D01*
X14211991Y-13599079D02*
X14202468Y-13580031D01*
X14202468Y-13580031D02*
X14192944Y-13551460D01*
X14192944Y-13551460D02*
X14183420Y-13503841D01*
X14183420Y-13503841D02*
X14183420Y-13465746D01*
X14183420Y-13465746D02*
X14192944Y-13418127D01*
X14192944Y-13418127D02*
X14202468Y-13389555D01*
X14202468Y-13389555D02*
X14211991Y-13370508D01*
X14211991Y-13370508D02*
X14231039Y-13341936D01*
X14231039Y-13341936D02*
X14240563Y-13332412D01*
X14402468Y-13427650D02*
X14402468Y-13560984D01*
X14354848Y-13351460D02*
X14307229Y-13494317D01*
X14307229Y-13494317D02*
X14431039Y-13494317D01*
X14659610Y-13560984D02*
X14659610Y-13360984D01*
X14745325Y-13560984D02*
X14745325Y-13456222D01*
X14745325Y-13456222D02*
X14735801Y-13437174D01*
X14735801Y-13437174D02*
X14716753Y-13427650D01*
X14716753Y-13427650D02*
X14688182Y-13427650D01*
X14688182Y-13427650D02*
X14669134Y-13437174D01*
X14669134Y-13437174D02*
X14659610Y-13446698D01*
X14869134Y-13560984D02*
X14850087Y-13551460D01*
X14850087Y-13551460D02*
X14840563Y-13541936D01*
X14840563Y-13541936D02*
X14831039Y-13522888D01*
X14831039Y-13522888D02*
X14831039Y-13465746D01*
X14831039Y-13465746D02*
X14840563Y-13446698D01*
X14840563Y-13446698D02*
X14850087Y-13437174D01*
X14850087Y-13437174D02*
X14869134Y-13427650D01*
X14869134Y-13427650D02*
X14897706Y-13427650D01*
X14897706Y-13427650D02*
X14916753Y-13437174D01*
X14916753Y-13437174D02*
X14926277Y-13446698D01*
X14926277Y-13446698D02*
X14935801Y-13465746D01*
X14935801Y-13465746D02*
X14935801Y-13522888D01*
X14935801Y-13522888D02*
X14926277Y-13541936D01*
X14926277Y-13541936D02*
X14916753Y-13551460D01*
X14916753Y-13551460D02*
X14897706Y-13560984D01*
X14897706Y-13560984D02*
X14869134Y-13560984D01*
X15050087Y-13560984D02*
X15031039Y-13551460D01*
X15031039Y-13551460D02*
X15021515Y-13532412D01*
X15021515Y-13532412D02*
X15021515Y-13360984D01*
X15202468Y-13551460D02*
X15183420Y-13560984D01*
X15183420Y-13560984D02*
X15145325Y-13560984D01*
X15145325Y-13560984D02*
X15126277Y-13551460D01*
X15126277Y-13551460D02*
X15116753Y-13532412D01*
X15116753Y-13532412D02*
X15116753Y-13456222D01*
X15116753Y-13456222D02*
X15126277Y-13437174D01*
X15126277Y-13437174D02*
X15145325Y-13427650D01*
X15145325Y-13427650D02*
X15183420Y-13427650D01*
X15183420Y-13427650D02*
X15202468Y-13437174D01*
X15202468Y-13437174D02*
X15211991Y-13456222D01*
X15211991Y-13456222D02*
X15211991Y-13475269D01*
X15211991Y-13475269D02*
X15116753Y-13494317D01*
X15288182Y-13551460D02*
X15307230Y-13560984D01*
X15307230Y-13560984D02*
X15345325Y-13560984D01*
X15345325Y-13560984D02*
X15364372Y-13551460D01*
X15364372Y-13551460D02*
X15373896Y-13532412D01*
X15373896Y-13532412D02*
X15373896Y-13522888D01*
X15373896Y-13522888D02*
X15364372Y-13503841D01*
X15364372Y-13503841D02*
X15345325Y-13494317D01*
X15345325Y-13494317D02*
X15316753Y-13494317D01*
X15316753Y-13494317D02*
X15297706Y-13484793D01*
X15297706Y-13484793D02*
X15288182Y-13465746D01*
X15288182Y-13465746D02*
X15288182Y-13456222D01*
X15288182Y-13456222D02*
X15297706Y-13437174D01*
X15297706Y-13437174D02*
X15316753Y-13427650D01*
X15316753Y-13427650D02*
X15345325Y-13427650D01*
X15345325Y-13427650D02*
X15364372Y-13437174D01*
X15440563Y-13637174D02*
X15450087Y-13627650D01*
X15450087Y-13627650D02*
X15469134Y-13599079D01*
X15469134Y-13599079D02*
X15478658Y-13580031D01*
X15478658Y-13580031D02*
X15488182Y-13551460D01*
X15488182Y-13551460D02*
X15497706Y-13503841D01*
X15497706Y-13503841D02*
X15497706Y-13465746D01*
X15497706Y-13465746D02*
X15488182Y-13418127D01*
X15488182Y-13418127D02*
X15478658Y-13389555D01*
X15478658Y-13389555D02*
X15469134Y-13370508D01*
X15469134Y-13370508D02*
X15450087Y-13341936D01*
X15450087Y-13341936D02*
X15440563Y-13332412D01*
X15802468Y-13637174D02*
X15792944Y-13627650D01*
X15792944Y-13627650D02*
X15773896Y-13599079D01*
X15773896Y-13599079D02*
X15764372Y-13580031D01*
X15764372Y-13580031D02*
X15754849Y-13551460D01*
X15754849Y-13551460D02*
X15745325Y-13503841D01*
X15745325Y-13503841D02*
X15745325Y-13465746D01*
X15745325Y-13465746D02*
X15754849Y-13418127D01*
X15754849Y-13418127D02*
X15764372Y-13389555D01*
X15764372Y-13389555D02*
X15773896Y-13370508D01*
X15773896Y-13370508D02*
X15792944Y-13341936D01*
X15792944Y-13341936D02*
X15802468Y-13332412D01*
X15878658Y-13427650D02*
X15878658Y-13560984D01*
X15878658Y-13446698D02*
X15888182Y-13437174D01*
X15888182Y-13437174D02*
X15907230Y-13427650D01*
X15907230Y-13427650D02*
X15935801Y-13427650D01*
X15935801Y-13427650D02*
X15954849Y-13437174D01*
X15954849Y-13437174D02*
X15964372Y-13456222D01*
X15964372Y-13456222D02*
X15964372Y-13560984D01*
X16088182Y-13560984D02*
X16069134Y-13551460D01*
X16069134Y-13551460D02*
X16059611Y-13541936D01*
X16059611Y-13541936D02*
X16050087Y-13522888D01*
X16050087Y-13522888D02*
X16050087Y-13465746D01*
X16050087Y-13465746D02*
X16059611Y-13446698D01*
X16059611Y-13446698D02*
X16069134Y-13437174D01*
X16069134Y-13437174D02*
X16088182Y-13427650D01*
X16088182Y-13427650D02*
X16116753Y-13427650D01*
X16116753Y-13427650D02*
X16135801Y-13437174D01*
X16135801Y-13437174D02*
X16145325Y-13446698D01*
X16145325Y-13446698D02*
X16154849Y-13465746D01*
X16154849Y-13465746D02*
X16154849Y-13522888D01*
X16154849Y-13522888D02*
X16145325Y-13541936D01*
X16145325Y-13541936D02*
X16135801Y-13551460D01*
X16135801Y-13551460D02*
X16116753Y-13560984D01*
X16116753Y-13560984D02*
X16088182Y-13560984D01*
X16211992Y-13427650D02*
X16288182Y-13427650D01*
X16240563Y-13360984D02*
X16240563Y-13532412D01*
X16240563Y-13532412D02*
X16250087Y-13551460D01*
X16250087Y-13551460D02*
X16269134Y-13560984D01*
X16269134Y-13560984D02*
X16288182Y-13560984D01*
X16507230Y-13427650D02*
X16507230Y-13627650D01*
X16507230Y-13437174D02*
X16526277Y-13427650D01*
X16526277Y-13427650D02*
X16564373Y-13427650D01*
X16564373Y-13427650D02*
X16583420Y-13437174D01*
X16583420Y-13437174D02*
X16592944Y-13446698D01*
X16592944Y-13446698D02*
X16602468Y-13465746D01*
X16602468Y-13465746D02*
X16602468Y-13522888D01*
X16602468Y-13522888D02*
X16592944Y-13541936D01*
X16592944Y-13541936D02*
X16583420Y-13551460D01*
X16583420Y-13551460D02*
X16564373Y-13560984D01*
X16564373Y-13560984D02*
X16526277Y-13560984D01*
X16526277Y-13560984D02*
X16507230Y-13551460D01*
X16716753Y-13560984D02*
X16697706Y-13551460D01*
X16697706Y-13551460D02*
X16688182Y-13532412D01*
X16688182Y-13532412D02*
X16688182Y-13360984D01*
X16878658Y-13560984D02*
X16878658Y-13456222D01*
X16878658Y-13456222D02*
X16869135Y-13437174D01*
X16869135Y-13437174D02*
X16850087Y-13427650D01*
X16850087Y-13427650D02*
X16811992Y-13427650D01*
X16811992Y-13427650D02*
X16792944Y-13437174D01*
X16878658Y-13551460D02*
X16859611Y-13560984D01*
X16859611Y-13560984D02*
X16811992Y-13560984D01*
X16811992Y-13560984D02*
X16792944Y-13551460D01*
X16792944Y-13551460D02*
X16783420Y-13532412D01*
X16783420Y-13532412D02*
X16783420Y-13513365D01*
X16783420Y-13513365D02*
X16792944Y-13494317D01*
X16792944Y-13494317D02*
X16811992Y-13484793D01*
X16811992Y-13484793D02*
X16859611Y-13484793D01*
X16859611Y-13484793D02*
X16878658Y-13475269D01*
X16945325Y-13427650D02*
X17021515Y-13427650D01*
X16973896Y-13360984D02*
X16973896Y-13532412D01*
X16973896Y-13532412D02*
X16983420Y-13551460D01*
X16983420Y-13551460D02*
X17002468Y-13560984D01*
X17002468Y-13560984D02*
X17021515Y-13560984D01*
X17164373Y-13551460D02*
X17145325Y-13560984D01*
X17145325Y-13560984D02*
X17107230Y-13560984D01*
X17107230Y-13560984D02*
X17088182Y-13551460D01*
X17088182Y-13551460D02*
X17078658Y-13532412D01*
X17078658Y-13532412D02*
X17078658Y-13456222D01*
X17078658Y-13456222D02*
X17088182Y-13437174D01*
X17088182Y-13437174D02*
X17107230Y-13427650D01*
X17107230Y-13427650D02*
X17145325Y-13427650D01*
X17145325Y-13427650D02*
X17164373Y-13437174D01*
X17164373Y-13437174D02*
X17173896Y-13456222D01*
X17173896Y-13456222D02*
X17173896Y-13475269D01*
X17173896Y-13475269D02*
X17078658Y-13494317D01*
X17345325Y-13560984D02*
X17345325Y-13360984D01*
X17345325Y-13551460D02*
X17326277Y-13560984D01*
X17326277Y-13560984D02*
X17288182Y-13560984D01*
X17288182Y-13560984D02*
X17269135Y-13551460D01*
X17269135Y-13551460D02*
X17259611Y-13541936D01*
X17259611Y-13541936D02*
X17250087Y-13522888D01*
X17250087Y-13522888D02*
X17250087Y-13465746D01*
X17250087Y-13465746D02*
X17259611Y-13446698D01*
X17259611Y-13446698D02*
X17269135Y-13437174D01*
X17269135Y-13437174D02*
X17288182Y-13427650D01*
X17288182Y-13427650D02*
X17326277Y-13427650D01*
X17326277Y-13427650D02*
X17345325Y-13437174D01*
X17421516Y-13637174D02*
X17431039Y-13627650D01*
X17431039Y-13627650D02*
X17450087Y-13599079D01*
X17450087Y-13599079D02*
X17459611Y-13580031D01*
X17459611Y-13580031D02*
X17469135Y-13551460D01*
X17469135Y-13551460D02*
X17478658Y-13503841D01*
X17478658Y-13503841D02*
X17478658Y-13465746D01*
X17478658Y-13465746D02*
X17469135Y-13418127D01*
X17469135Y-13418127D02*
X17459611Y-13389555D01*
X17459611Y-13389555D02*
X17450087Y-13370508D01*
X17450087Y-13370508D02*
X17431039Y-13341936D01*
X17431039Y-13341936D02*
X17421516Y-13332412D01*
M02*
