M48
; DRILL file KiCad 10.0.0 date 2026-05-13T20:08:07
; FORMAT={3:3/ absolute / metric / suppress leading zeros}
; #@! TF.CreationDate,2026-05-13T20:08:07-04:00
; #@! TF.GenerationSoftware,Kicad,Pcbnew,10.0.0
; #@! TF.FileFunction,Plated,1,2,PTH
FMAT,2
METRIC,TZ
; #@! TA.AperFunction,Plated,PTH,ComponentDrill
T1C0.800
; #@! TA.AperFunction,Plated,PTH,ComponentDrill
T2C0.900
; #@! TA.AperFunction,Plated,PTH,ComponentDrill
T3C1.000
; #@! TA.AperFunction,Plated,PTH,ComponentDrill
T4C1.100
%
G90
G05
T1
X123150Y-113810
X123460Y-82310
X123650Y-97310
X130770Y-113810
X131080Y-82310
X131270Y-97310
T2
X113920Y-82310
X113920Y-97310
X113920Y-113810
X116460Y-82310
X116460Y-97310
X116460Y-113810
T3
X141560Y-73330
X141560Y-75870
X141560Y-78410
X141560Y-80950
X141560Y-83490
X141560Y-86030
X141560Y-88570
X141560Y-91110
X141560Y-93650
X141560Y-96190
X141560Y-98730
X141560Y-101270
X141560Y-103810
X141560Y-106350
X141560Y-108890
X141560Y-111430
X141560Y-113970
X141560Y-116510
X141560Y-119050
X166960Y-73310
X166960Y-75850
X166960Y-78390
X166960Y-80930
X166960Y-83470
X166960Y-86010
X166960Y-88550
X166960Y-91090
X166960Y-93630
X166960Y-96170
X166960Y-98710
X166960Y-101250
X166960Y-103790
X166960Y-106330
X166960Y-108870
X166960Y-111410
X166960Y-113950
X166960Y-116490
X166960Y-119030
T4
X176410Y-76990
X176410Y-81490
X176410Y-93790
X176410Y-98290
X176460Y-111560
X176460Y-116060
X182910Y-76990
X182910Y-81490
X182910Y-93790
X182910Y-98290
X182960Y-111560
X182960Y-116060
M30
